<?xml version="1.0" encoding="UTF-8" standalone="no"?>
<!-- Created with Inkscape (http://www.inkscape.org/) -->

<svg
   width="210mm"
   height="297mm"
   viewBox="0 0 210 297"
   version="1.1"
   id="svg1"
   inkscape:version="1.4.3 (0d15f75, 2025-12-25)"
   sodipodi:docname="LOGO.svg"
   xmlns:inkscape="http://www.inkscape.org/namespaces/inkscape"
   xmlns:sodipodi="http://sodipodi.sourceforge.net/DTD/sodipodi-0.dtd"
   xmlns="http://www.w3.org/2000/svg"
   xmlns:svg="http://www.w3.org/2000/svg">
  <sodipodi:namedview
     id="namedview1"
     pagecolor="#ffffff"
     bordercolor="#000000"
     borderopacity="0.25"
     inkscape:showpageshadow="2"
     inkscape:pageopacity="0.0"
     inkscape:pagecheckerboard="0"
     inkscape:deskcolor="#d1d1d1"
     inkscape:document-units="mm"
     inkscape:zoom="0.67201785"
     inkscape:cx="454.60102"
     inkscape:cy="481.38602"
     inkscape:window-width="2288"
     inkscape:window-height="882"
     inkscape:window-x="0"
     inkscape:window-y="25"
     inkscape:window-maximized="0"
     inkscape:current-layer="layer1" />
  <defs
     id="defs1" />
  <g
     inkscape:label="Layer 1"
     inkscape:groupmode="layer"
     id="layer1">
    <g
       id="g132"
       transform="matrix(0.26458333,0,0,0.26458333,-162.22466,29.463608)">
      <path
         id="path98"
         d="m 1068.4419,558.59347 c -103.468,0 -187.64266,-84.176 -187.64266,-187.64266 0,-103.46667 84.17466,-187.64266 187.64266,-187.64266 103.468,0 187.6427,84.17599 187.6427,187.64266 0,103.46666 -84.1747,187.64266 -187.6427,187.64266 m 0,-377.95199 c -104.93733,0 -190.30933,85.372 -190.30933,190.30933 0,104.93733 85.372,190.30933 190.30933,190.30933 104.9373,0 190.3093,-85.372 190.3093,-190.30933 0,-104.93733 -85.372,-190.30933 -190.3093,-190.30933"
         style="fill:#f4dfbe;fill-opacity:1;fill-rule:nonzero;stroke:none;stroke-width:1.33333" />
      <path
         id="path99"
         d="m 1068.4419,541.5752 c -94.08266,0 -170.624,-76.54266 -170.624,-170.62533 0,-94.08133 76.54134,-170.62266 170.624,-170.62266 94.084,0 170.6253,76.54133 170.6253,170.62266 0,94.08267 -76.5413,170.62533 -170.6253,170.62533 m 0,-343.91466 c -95.552,0 -173.29066,77.73733 -173.29066,173.28933 0,95.55333 77.73866,173.292 173.29066,173.292 95.5533,0 173.292,-77.73867 173.292,-173.292 0,-95.552 -77.7387,-173.28933 -173.292,-173.28933"
         style="fill:#f4dfbe;fill-opacity:1;fill-rule:nonzero;stroke:none;stroke-width:1.33333" />
      <path
         id="path100"
         d="m 941.3832,349.20867 c -3.98667,-2.13467 -16.88133,-12.75733 -18.26933,-3.76533 l 0.0973,0.0147 c 0.448,-2.89733 11.67467,0.184 16.39333,3.03734 l 1.35867,0.816 -18.33733,3.44133 -0.464,2.99733 18.75333,-3.512 z"
         style="fill:#f4dfbe;fill-opacity:1;fill-rule:nonzero;stroke:none;stroke-width:1.33333" />
      <path
         id="path101"
         d="m 930.91573,319.23213 c 1.16133,-3.08667 5.83467,-3.39467 10.296,-1.71467 4.45867,1.67867 7.77067,4.98934 6.608,8.07867 -1.17333,3.11733 -5.84667,3.424 -10.30667,1.74533 -4.46,-1.67866 -7.772,-4.99066 -6.59733,-8.10933 m 5.49333,11.04 c 5.14534,1.93733 9.96667,-0.272 11.59734,-4.60667 1.632,-4.336 -0.504,-9.16266 -5.68,-11.112 -5.20934,-1.96 -9.96667,0.272 -11.59867,4.608 -1.63067,4.33467 0.504,9.16267 5.68133,11.11067"
         style="fill:#f4dfbe;fill-opacity:1;fill-rule:nonzero;stroke:none;stroke-width:1.33333" />
      <path
         id="path102"
         d="m 936.1684,295.59413 20.15067,11.76267 1.53066,-2.62 -20.15333,-11.76267 c -1.89867,-1.10933 -4.29333,-0.11467 -5.32,1.64267 l 0.116,0.0667 c 0.28533,-0.48933 1.54533,-0.33333 3.676,0.91067"
         style="fill:#f4dfbe;fill-opacity:1;fill-rule:nonzero;stroke:none;stroke-width:1.33333" />
      <path
         id="path103"
         d="m 946.80373,279.43267 18.5,14.228 1.85067,-2.40533 -18.5,-14.228 c -1.74534,-1.34134 -4.248,-0.65734 -5.48667,0.95466 l 0.10533,0.0813 c 0.34534,-0.44934 1.57467,-0.13467 3.53067,1.36933"
         style="fill:#f4dfbe;fill-opacity:1;fill-rule:nonzero;stroke:none;stroke-width:1.33333" />
      <path
         id="path104"
         d="m 959.76733,264.2048 15.96533,17.01867 2.212,-2.076 -5.54133,-5.908 c 2.576,-2.41734 8.56267,3.576 12.74533,-0.34667 0.41334,-0.388 0.80534,-0.84667 1.17867,-1.472 l -0.068,-0.0733 c -2.064,3.30666 -7.96133,-4.004 -13.84533,1.51466 l -0.78134,-12.476 -2.18666,2.052 c 1.424,2.64 2.49066,6.164 2.77333,10.60667 l -10.24,-10.916 c -1.50533,-1.60533 -4.084,-1.33333 -5.568,0.0573 l 0.092,0.0987 c 0.412,-0.38933 1.576,0.12 3.264,1.92"
         style="fill:#f4dfbe;fill-opacity:1;fill-rule:nonzero;stroke:none;stroke-width:1.33333" />
      <path
         id="path105"
         d="m 990.49387,246.42093 c 2.796,-1.75333 6.69867,0.836 9.23067,4.87333 2.53066,4.03867 3.15866,8.68 0.36266,10.432 -2.824,1.77067 -6.728,-0.81866 -9.25866,-4.856 -2.53067,-4.03733 -3.15867,-8.68 -0.33467,-10.44933 m 9.69863,15.47467 c 3.9267,-2.46 5.1534,-7.59467 2.2147,-12.28134 -2.956,-4.71733 -8.09466,-5.824 -12.02,-3.36266 -3.924,2.46 -5.15066,7.59466 -2.21333,12.28266 2.92,4.65867 8.09467,5.82134 12.01863,3.36134"
         style="fill:#f4dfbe;fill-opacity:1;fill-rule:nonzero;stroke:none;stroke-width:1.33333" />
      <path
         id="path106"
         d="m 1013.6033,238.318 4.52,13.53333 2.8773,-0.96133 -3.992,-11.952 c -0.8546,-2.56 0.071,-4.31067 1.4,-4.75333 1.3587,-0.45467 3.1187,0.39733 3.9747,2.95866 l 3.992,11.95067 2.876,-0.96133 -3.9907,-11.95067 c -0.8546,-2.56 0.072,-4.31067 1.3987,-4.75467 1.36,-0.45466 3.1213,0.39867 3.976,2.96 l 3.992,11.95067 2.8773,-0.96 -3.992,-11.952 c -1.1826,-3.54 -3.9346,-4.62533 -6.052,-3.91733 -1.8346,0.61333 -3.224,2.55333 -2.7173,5.44133 -1.372,-2.52933 -3.7013,-3.29733 -5.536,-2.68533 -1.7067,0.57066 -3.0133,2.34133 -2.7907,4.904 -0.7813,-1.91867 -3.1413,-2.676 -5.008,-2.05334 l 0.032,0.0947 c 0.5374,-0.18 1.3814,0.768 2.1627,3.108"
         style="fill:#f4dfbe;fill-opacity:1;fill-rule:nonzero;stroke:none;stroke-width:1.33333" />
      <path
         id="path107"
         d="m 1057.9431,229.86227 0.808,12.57333 3.0267,-0.19466 -0.8067,-12.57334 c -0.1733,-2.69466 1.1693,-4.15066 2.5653,-4.24 1.4307,-0.0933 2.916,1.18267 3.088,3.876 l 0.808,12.57467 3.0267,-0.19467 -0.808,-12.57333 c -0.2373,-3.72533 -2.6213,-5.47733 -4.8507,-5.33333 -1.9306,0.12266 -3.7693,1.644 -4.016,4.56533 -0.68,-2.79467 -2.7373,-4.132 -4.6666,-4.008 -1.796,0.11467 -3.5107,1.49467 -3.9494,4.028 -0.2653,-2.05467 -2.356,-3.38933 -4.3173,-3.26267 l 0.01,0.0987 c 0.564,-0.036 1.1386,1.096 1.296,3.55733 l 0.9146,14.23734 3.0267,-0.19467 -0.8067,-12.57467 c -0.1733,-2.69333 1.1694,-4.14933 2.5667,-4.23866 1.4307,-0.092 2.9147,1.18266 3.088,3.87733"
         style="fill:#f4dfbe;fill-opacity:1;fill-rule:nonzero;stroke:none;stroke-width:1.33333" />
      <path
         id="path108"
         d="m 1092.2269,225.96773 c 2.5667,0.416 2.8587,3.60533 2.4933,5.84267 -0.684,4.21066 -3.4426,5.18 -5.8106,4.796 -0.8214,-0.13467 -1.5854,-0.428 -2.2014,-0.79734 -0.1933,-4.82666 2.2627,-10.37066 5.5187,-9.84133 m -2.5373,18.092 c 2.9933,0.488 5.6466,-0.66933 7.6826,-3.84933 l -0.1746,-0.16267 c -1.2414,2.02533 -3.4134,2.92267 -5.8427,2.49333 -3.088,-0.536 -4.4253,-3.32 -4.6173,-6.49066 0.9453,0.62533 2.184,1.09733 3.468,1.30533 3.1906,0.52 6.776,-0.552 7.5093,-5.05867 0.4867,-2.99466 -1.5413,-5.89066 -5.456,-6.52666 -9.5413,-1.552 -12.2413,16.716 -2.5693,18.28933"
         style="fill:#f4dfbe;fill-opacity:1;fill-rule:nonzero;stroke:none;stroke-width:1.33333" />
      <path
         id="path109"
         d="m 1115.6097,237.49907 c 0.9613,-2.524 3.1293,-3.16 4.8107,-2.52 1.652,0.62933 2.8466,2.548 1.8866,5.06933 l -4.484,11.77467 2.8667,1.092 4.4827,-11.77467 c 1.328,-3.48933 -0.456,-6.20133 -2.9174,-7.13866 -2.024,-0.77067 -4.48,-0.31467 -6.028,1.87733 l 0.012,-0.0307 c 0.696,-2.01733 -0.6693,-4.14266 -2.54,-4.85466 l -0.035,0.0933 c 0.5293,0.20267 0.5826,1.47067 -0.296,3.77467 l -5.076,13.332 2.8346,1.07866 z"
         style="fill:#f4dfbe;fill-opacity:1;fill-rule:nonzero;stroke:none;stroke-width:1.33333" />
      <path
         id="path110"
         d="m 1158.1293,261.4808 c 1.744,-2.01867 4.104,-2.04933 5.464,-0.92 4.4573,3.76267 -6.6227,15.776 -10.764,12.156 -0.8067,-0.69867 -1.3853,-1.81467 -2.1093,-2.65867 z m -8.296,8.07467 c 1.1853,1.024 2.012,3.28 3.5507,4.60933 6.2813,5.42533 18.392,-8.34133 12.136,-13.74533 -1.6147,-1.39467 -4.0534,-1.78267 -6.2574,-0.25067 l 5.8827,-6.812 c 1.4387,-1.66533 0.8973,-4.20133 -0.6413,-5.53067 l -0.087,0.10134 c 0.4293,0.36933 0.045,1.57866 -1.568,3.44666 l -15.252,17.66 0.152,0.13067 c 0.8747,-0.30133 1.528,-0.0893 2.084,0.39067"
         style="fill:#f4dfbe;fill-opacity:1;fill-rule:nonzero;stroke:none;stroke-width:1.33333" />
      <path
         id="path111"
         d="m 1168.602,289.85187 9.844,-7.86667 c 2.1867,-1.74933 3.8373,-1.65866 4.4827,-0.852 0.52,0.65067 0.3426,1.816 -0.8547,2.77467 -0.3133,0.24933 -0.7613,0.436 -0.9067,0.25467 l -0.104,0.0827 c 1.04,1.30267 2.6227,2.00134 3.8987,0.98 1.224,-0.97733 1.1733,-2.64266 0.236,-3.81466 -0.9573,-1.19734 -2.852,-1.86134 -5.236,-0.68 1.484,-1.4 1.3493,-3.81067 0.1413,-5.32134 l -0.079,0.0627 c 0.3546,0.44267 -0.244,1.56267 -2.1707,3.10267 l -11.1467,8.908 z"
         style="fill:#f4dfbe;fill-opacity:1;fill-rule:nonzero;stroke:none;stroke-width:1.33333" />
      <path
         id="path112"
         d="m 1191.7881,306.67613 -5.0907,2.78267 c -2.0506,0.20933 -3.608,-0.76267 -4.296,-2.02134 -0.688,-1.25866 -0.4893,-2.772 1.0614,-3.62 2.3693,-1.29466 5.2226,-0.38533 8.3253,2.85867 m 1.74,-6.27067 c 1.736,-1.06266 3.2693,-0.76133 3.8133,0.23334 0.5907,1.08266 -0.112,3.06266 -3.4173,4.86933 l -1.932,1.056 c -1.1667,-2.13467 -0.58,-4.888 1.536,-6.15867 m -12.4867,1.27734 c -1.8426,1.008 -2.084,3.00133 -1.124,4.756 1.008,1.84266 3.3027,3.4 6.3707,3.244 l -0.1173,0.064 c -1.9307,1.05466 -2.3147,3.62133 -1.3387,5.404 l 0.088,-0.0467 c -0.272,-0.49733 0.5413,-1.512 2.7067,-2.69467 l 7.752,-4.23866 c 3.3933,-1.856 3.412,-5.436 2.0213,-7.98134 -1.168,-2.136 -3.3667,-3.51733 -5.3267,-2.44666 -2.6626,1.456 -1.9506,5.816 -0.608,8.27333 -2.604,-2.68 -6.884,-6.268 -10.424,-4.33333"
         style="fill:#f4dfbe;fill-opacity:1;fill-rule:nonzero;stroke:none;stroke-width:1.33333" />
      <path
         id="path113"
         d="m 1190.8533,331.184 c 0.6387,2.03467 2.4867,3.68933 5.1667,3.54667 l -3.4974,1.09866 0.9174,2.92667 13.7066,-4.30667 c 2.0147,-0.70266 2.8374,-3.09066 2.2374,-5 l -0.096,0.0307 c 0.1706,0.54 -0.8027,1.336 -3.156,2.07467 l -8.4267,2.648 c -2.576,0.808 -4.4187,-0.49867 -4.948,-2.18534 -0.54,-1.716 0.2253,-3.844 2.8,-4.652 l 8.428,-2.648 c 2.0987,-0.66 2.9413,-3.09066 2.332,-5.02933 l -0.096,0.0293 c 0.1693,0.54134 -0.792,1.368 -3.1453,2.10534 l -8.4267,2.648 c -3.5613,1.12 -4.5853,4.2 -3.796,6.71333"
         style="fill:#f4dfbe;fill-opacity:1;fill-rule:nonzero;stroke:none;stroke-width:1.33333" />
      <path
         id="path114"
         d="m 1217.8143,351.8076 -0.028,-0.19733 c -1.7107,-0.712 -3.98,-1.81734 -4.1947,-3.40267 l -0.1973,0.0253 0.1467,1.092 -13.9107,1.884 c -3.0387,0.41067 -3.672,2.44934 -3.4347,4.2 0.063,0.46267 0.192,0.916 0.344,1.3 l 0.095,-0.0467 c -0.2027,-0.51067 0.86,-2.10134 3.404,-2.44667 l 13.9107,-1.884 0.1466,1.08933 0.1974,-0.0253 -0.1467,-1.092 z"
         style="fill:#f4dfbe;fill-opacity:1;fill-rule:nonzero;stroke:none;stroke-width:1.33333" />
      <path
         id="path115"
         d="m 926.4744,405.71253 c -1.80533,-8.34133 14.30667,-11.44133 15.68133,-5.43067 0.86134,3.76934 -3.68666,4.808 -3.932,3.736 l -0.13066,0.0293 c 0.43066,1.88533 1.288,3.53466 2.84666,3.18 1.65734,-0.37867 2.26534,-3.25467 1.41067,-6.98934 -2.28667,-10.008 -20.29333,-5.92666 -17.90933,4.50267 0.67333,2.95733 2.744,4.98 6.456,5.66933 l 0.0867,-0.22533 c -2.34533,-0.38533 -3.992,-2.06 -4.50933,-4.472"
         style="fill:#f4dfbe;fill-opacity:1;fill-rule:nonzero;stroke:none;stroke-width:1.33333" />
      <path
         id="path116"
         d="m 951.63453,427.34413 -0.0907,0.0413 c 0.236,0.516 -0.62933,1.42667 -2.872,2.45467 l -8.02666,3.68267 c -2.45467,1.12533 -4.44667,0.0587 -5.18267,-1.54667 -0.75067,-1.636 -0.25867,-3.84133 2.19467,-4.96667 l 8.028,-3.68266 c 1.99866,-0.91734 2.53066,-3.43467 1.684,-5.28267 l -0.092,0.0427 c 0.23733,0.51333 -0.61467,1.45466 -2.856,2.48266 l -8.02934,3.68267 c -3.392,1.55733 -4.02133,4.74133 -2.92266,7.13467 0.88933,1.93866 2.92933,3.34933 5.57066,2.872 l -3.332,1.528 1.27734,2.788 13.05733,-5.98934 c 1.91067,-0.94933 2.42667,-3.424 1.592,-5.24133"
         style="fill:#f4dfbe;fill-opacity:1;fill-rule:nonzero;stroke:none;stroke-width:1.33333" />
      <path
         id="path117"
         d="m 964.41053,447.99387 c -0.88667,-1.25067 -2.74,-2.02267 -5.18933,-0.98133 1.56266,-1.312 1.56933,-3.72534 0.452,-5.30267 l -0.0813,0.0573 c 0.328,0.46267 -0.336,1.54534 -2.34933,2.972 l -11.64133,8.24534 1.75333,2.476 10.28133,-7.284 c 2.28534,-1.61867 3.92667,-1.43334 4.52534,-0.59067 0.48133,0.68 0.236,1.83333 -1.01467,2.72 -0.32667,0.232 -0.784,0.392 -0.92,0.20267 l -0.108,0.076 c 0.96267,1.36133 2.50133,2.14933 3.83467,1.20533 1.27866,-0.90533 1.324,-2.572 0.45733,-3.796"
         style="fill:#f4dfbe;fill-opacity:1;fill-rule:nonzero;stroke:none;stroke-width:1.33333" />
      <path
         id="path118"
         d="m 980.28947,465.19827 -0.0707,0.0707 c 2.096,2.052 -6.94666,9.38666 -12.01466,11.56266 l -1.45334,0.628 7.87867,-16.91466 -2.168,-2.12267 -8.064,17.296 2.192,2.144 c 4.05733,-2 20.204,-6.3 13.7,-12.664"
         style="fill:#f4dfbe;fill-opacity:1;fill-rule:nonzero;stroke:none;stroke-width:1.33333" />
      <path
         id="path119"
         d="m 1000.1775,480.48213 -0.055,0.0827 c 2.4534,1.61066 -5.0093,10.552 -9.53463,13.68133 l -1.288,0.86933 4.53733,-18.036 -2.648,-1.73733 -4.63733,18.49067 2.37066,1.55466 c -4.932,3.38267 -6.97733,3.15734 -8.176,2.37067 -1.728,-1.13467 0.21734,-3.24667 0.96934,-2.75333 l 0.0547,-0.084 c -1.7,-1.116 -3.504,-1.22267 -4.45466,0.22666 -0.824,1.25334 -0.38667,2.656 1.03466,3.588 3.17734,2.08667 9.368,-2.184 10.82267,-3.184 l 1.66533,-1.14133 c 5.03334,-3.476 16.02933,-9.53867 9.33863,-13.928"
         style="fill:#f4dfbe;fill-opacity:1;fill-rule:nonzero;stroke:none;stroke-width:1.33333" />
      <path
         id="path120"
         d="m 1034.1332,513.9392 c -1.0387,-0.24667 -2.0667,-0.96933 -3.0973,-1.38533 l 2.6146,-11.02667 c 0.616,-2.59333 2.6947,-3.71067 4.4214,-3.336 5.692,1.28133 1.404,17.05067 -3.9387,15.748 m 5.5853,-16.76133 c -2.076,-0.492 -4.42,0.288 -5.668,2.664 l 2.076,-8.75734 c 0.508,-2.14 -1.1413,-4.14 -3.12,-4.61066 l -0.031,0.13066 c 0.552,0.13067 0.7693,1.38134 0.2,3.78134 l -5.384,22.7 0.196,0.048 c 0.6373,-0.672 1.316,-0.784 2.028,-0.616 1.5253,0.36133 3.2986,1.98133 5.2773,2.44933 8.0747,1.916 12.4667,-15.88267 4.4253,-17.78933"
         style="fill:#f4dfbe;fill-opacity:1;fill-rule:nonzero;stroke:none;stroke-width:1.33333" />
      <path
         id="path121"
         d="m 1065.2361,500.35587 c -1.532,-0.072 -3.28,0.91467 -3.968,3.48667 -0.071,-2.03867 -1.9707,-3.52934 -3.9027,-3.61867 l -0.01,0.1 c 0.5667,0.0253 1.012,1.216 0.8987,3.67867 l -0.6627,14.256 3.0307,0.14 0.584,-12.58934 c 0.1306,-2.79733 1.2866,-3.97866 2.3186,-3.93066 0.8334,0.0387 1.592,0.94266 1.52,2.47333 -0.017,0.4 -0.1733,0.86 -0.4053,0.84933 l -0.01,0.132 c 1.6654,0.0787 3.2347,-0.64933 3.3107,-2.28266 0.072,-1.564 -1.2133,-2.62534 -2.712,-2.69467"
         style="fill:#f4dfbe;fill-opacity:1;fill-rule:nonzero;stroke:none;stroke-width:1.33333" />
      <path
         id="path122"
         d="m 1086.02,515.99 c -1.4227,0.18267 -2.7587,-0.55333 -2.984,-2.30533 -0.3427,-2.67867 1.544,-5.00267 5.6933,-6.71067 l 0.7374,5.75333 c -0.5534,1.98534 -2.0267,3.08 -3.4467,3.26267 m -2.4947,-12.92 c -0.3573,-2.004 0.4827,-3.32133 1.6067,-3.46533 1.2227,-0.156 2.8107,1.22 3.2893,4.956 l 0.2787,2.18133 c -2.4133,0.30933 -4.7627,-1.23733 -5.1747,-3.672 m 9.0254,9.86667 -1.1214,-8.76134 c -0.492,-3.83466 -3.8186,-5.15733 -6.6946,-4.788 -2.4147,0.308 -4.5014,1.852 -4.2174,4.068 0.3854,3.008 4.7027,3.93467 7.48,3.57867 -3.444,1.448 -8.3426,4.12533 -7.8306,8.12667 0.2666,2.08133 2.036,3.032 4.0186,2.77866 2.0827,-0.26666 4.368,-1.83733 5.34,-4.75066 l 0.017,0.13333 c 0.2786,2.18133 2.5266,3.47333 4.544,3.21467 l -0.012,-0.0987 c -0.5627,0.072 -1.2107,-1.05467 -1.524,-3.50133"
         style="fill:#f4dfbe;fill-opacity:1;fill-rule:nonzero;stroke:none;stroke-width:1.33333" />
      <path
         id="path123"
         d="m 1112.3649,492.9964 0.032,0.0947 c 0.5373,-0.18 1.352,0.776 2.14,3.11466 l 2.8187,8.37334 c 0.8626,2.55866 -0.4067,4.42933 -2.0814,4.99333 -1.708,0.57333 -3.8493,-0.14667 -4.712,-2.70667 l -2.8186,-8.372 c -0.7027,-2.08533 -3.1507,-2.87866 -5.0774,-2.23066 l 0.031,0.0947 c 0.5373,-0.18 1.384,0.76667 2.1707,3.104 l 2.82,8.37334 c 1.192,3.53733 4.2946,4.49866 6.7906,3.65733 2.0227,-0.68133 3.64,-2.56267 3.4414,-5.24 l 1.1706,3.476 2.908,-0.97867 -4.5866,-13.61733 c -0.744,-2.00133 -3.1507,-2.77467 -5.0467,-2.136"
         style="fill:#f4dfbe;fill-opacity:1;fill-rule:nonzero;stroke:none;stroke-width:1.33333" />
      <path
         id="path124"
         d="m 1137.9301,496.97427 -6.6813,-12.34267 0.968,-0.52266 -0.096,-0.176 -0.9667,0.52266 -1.7613,-3.25333 -0.176,0.0947 c -0.06,1.852 -0.2907,4.36533 -1.6987,5.12666 l 0.096,0.176 0.9667,-0.524 6.6813,12.34267 c 1.46,2.696 3.588,2.568 5.1413,1.728 0.412,-0.22267 0.7894,-0.504 1.0947,-0.78267 l -0.077,-0.072 c -0.4054,0.372 -2.2694,-0.06 -3.4907,-2.31733"
         style="fill:#f4dfbe;fill-opacity:1;fill-rule:nonzero;stroke:none;stroke-width:1.33333" />
      <path
         id="path125"
         d="m 1155.6059,466.78293 c -1.4867,1.236 -2.0813,3.548 -0.5613,6.05733 -2.1947,-1.86133 -4.6454,-1.73333 -6.1347,-0.49733 -1.3853,1.14933 -1.96,3.276 -0.8253,5.58267 -1.4227,-1.50534 -3.8987,-1.356 -5.4134,-0.1 l 0.064,0.0773 c 0.436,-0.36267 1.5667,0.21733 3.1427,2.116 l 9.1173,10.98 2.3347,-1.93867 -8.052,-9.69866 c -1.7253,-2.07734 -1.496,-4.04534 -0.4187,-4.94 1.104,-0.916 3.0534,-0.75867 4.7787,1.32 l 8.052,9.69733 2.3347,-1.93867 -8.052,-9.69733 c -1.7254,-2.07867 -1.4947,-4.04667 -0.4174,-4.94133 1.104,-0.91467 3.0547,-0.75867 4.78,1.32 l 8.052,9.69733 2.3347,-1.93867 -8.052,-9.69733 c -2.3853,-2.87333 -5.3453,-2.88667 -7.064,-1.46"
         style="fill:#f4dfbe;fill-opacity:1;fill-rule:nonzero;stroke:none;stroke-width:1.33333" />
      <path
         id="path126"
         d="m 1186.9511,459.08627 c -1.992,2.67333 -6.5693,1.67467 -10.392,-1.17333 -3.8227,-2.84934 -6.0893,-6.948 -4.0973,-9.62267 1.9706,-2.64533 6.5493,-1.64667 10.372,1.20133 3.8226,2.848 6.088,6.94934 4.1173,9.59467 m -2.2253,-12.13467 c -4.4654,-3.32666 -9.656,-2.496 -12.424,1.22134 -2.7694,3.71466 -2.052,8.94533 2.3853,12.25333 4.4107,3.28667 9.656,2.496 12.424,-1.22 2.768,-3.716 2.052,-8.948 -2.3853,-12.25467"
         style="fill:#f4dfbe;fill-opacity:1;fill-rule:nonzero;stroke:none;stroke-width:1.33333" />
      <path
         id="path127"
         d="m 1201.71,431.59013 c -2.0387,4.63867 -16.66,-1.21467 -14.196,-6.46533 0.7773,-1.624 2.9347,-2.58267 5.3613,-1.47734 l 6.4307,2.928 c 2.4573,1.12 3.1507,3.376 2.404,5.01467 m 0.4613,-7.04133 -17.8066,-8.10934 c -2.0027,-0.912 -4.2854,0.31867 -5.1134,2.13867 l 0.1214,0.056 c 0.2213,-0.48533 1.4893,-0.45733 3.7346,0.56533 l 8.1907,3.72934 c -2.6427,-0.47067 -4.696,0.90266 -5.58,2.844 -3.4253,7.52133 13.4107,14.78666 16.684,7.59733 0.884,-1.94133 0.5707,-4.392 -1.4893,-6.06133 2.0026,0.912 4.2853,-0.32 5.128,-2.17067 l -0.091,-0.0413 c -0.2347,0.516 -1.5347,0.47333 -3.7787,-0.548"
         style="fill:#f4dfbe;fill-opacity:1;fill-rule:nonzero;stroke:none;stroke-width:1.33333" />
      <path
         id="path128"
         d="m 1194.8755,399.6344 c 0.5733,-2.53467 3.772,-2.63333 5.9827,-2.13333 4.1613,0.94133 4.9613,3.752 4.4333,6.09333 -0.184,0.812 -0.5227,1.556 -0.9307,2.14667 -4.8293,-0.1 -10.2133,-2.888 -9.4853,-6.10667 m 14.5293,-4.268 -0.1733,0.16533 c 1.948,1.36134 2.7093,3.584 2.1333,5.98267 -0.7226,3.048 -3.5826,4.21333 -6.76,4.21333 0.6827,-0.904 1.2294,-2.11466 1.516,-3.38266 0.712,-3.15334 -0.14,-6.796 -4.5946,-7.80267 -2.9574,-0.668 -5.972,1.17867 -6.8454,5.048 -2.1306,9.428 15.94,13.23867 18.0987,3.68 0.6693,-2.95867 -0.3227,-5.67733 -3.3747,-7.904"
         style="fill:#f4dfbe;fill-opacity:1;fill-rule:nonzero;stroke:none;stroke-width:1.33333" />
      <path
         id="path129"
         d="m 1210.2859,369.2544 c -1.088,-0.0547 -1.92,0.472 -2.6773,1.16267 -0.5387,0.49066 -0.528,0.49333 -1.0827,-0.001 -0.6227,-0.556 -1.2893,-1.032 -2.1507,-1.14533 -1.948,-0.256 -3.6093,1.52133 -3.7053,3.37333 -0.063,1.22134 0.4827,2.22934 1.28,3.07334 1.6507,1.744 3.5173,3.28 5.0067,5.18 0.1506,0.19466 0.2013,0.0227 0.272,-0.056 0.532,-0.59867 1.0573,-1.204 1.592,-1.8 0.9786,-1.09334 2.1386,-2 3.1426,-3.068 0.8414,-0.89334 1.4854,-1.888 1.4974,-3.17467 0,-0.39467 -0.063,-0.77333 -0.1894,-1.14533 -0.4533,-1.32934 -1.7053,-2.33334 -2.9853,-2.39867"
         style="fill:#f4dfbe;fill-opacity:1;fill-rule:nonzero;stroke:none;stroke-width:1.33333" />
      <path
         id="path130"
         d="m 927.4424,380.8976 c 0.152,0.19333 0.20133,0.0227 0.272,-0.0573 0.53333,-0.59734 1.05733,-1.20267 1.592,-1.79867 0.97867,-1.09333 2.14,-2.00133 3.14267,-3.068 0.84133,-0.89467 1.48533,-1.88933 1.49733,-3.176 10e-4,-0.39333 -0.0613,-0.772 -0.18933,-1.144 -0.45334,-1.33067 -1.704,-2.33467 -2.98534,-2.39867 -1.08666,-0.056 -1.91866,0.472 -2.67733,1.16267 -0.53867,0.49067 -0.52667,0.49333 -1.08133,-0.003 -0.62267,-0.55466 -1.28934,-1.03066 -2.152,-1.144 -1.94667,-0.25733 -3.60934,1.52 -3.704,3.37334 -0.0627,1.22133 0.48266,2.22933 1.28,3.07333 1.64933,1.744 3.516,3.27867 5.00533,5.18"
         style="fill:#f4dfbe;fill-opacity:1;fill-rule:nonzero;stroke:none;stroke-width:1.33333" />
      <path
         id="path131"
         d="m 1106.8944,414.96947 v -61.312 c 0,-14.42666 9.5573,-22.90133 19.1147,-23.08266 31.5573,-0.36 28.672,88.00133 -1.0827,87.82133 -5.7707,0 -12.0813,-2.524 -18.032,-3.42667 m 26.508,-91.788 c -11.5413,0 -22.9013,7.03334 -26.508,21.09867 v -44.092 -4.59733 -18.80934 c 0,-11.90266 -11.1813,-20.37733 -22.1813,-20.37733 -8.3094,52.45733 -55.5694,229.09333 -5.168,229.09333 v -1.23067 c -16.248,0 -8.8627,-142.20933 2.768,-204.91066 l 4.036,-21.58533 c 2.3306,1.91066 4.1346,8.11333 4.1346,19.01066 v 18.80934 10.33466 115.89733 h 1.0827 c 2.524,-4.328 5.9507,-5.772 9.9173,-5.772 8.476,0 19.8374,6.312 30.8374,6.312 44.9013,0 45.8026,-99.18133 1.0813,-99.18133"
         style="fill:#f4dfbe;fill-opacity:1;fill-rule:nonzero;stroke:none;stroke-width:1.33333" />
      <path
         id="path132"
         d="m 1027.4583,320.032 v 0.552 c 16.1973,0 8.836,63.85867 -2.76,92.01333 l -3.3107,8.09733 -34.23197,-97.16533 H 970.4103 l 34.9667,99.37467 h 16.9293 c 8.284,-23.556 55.3947,-102.872 5.152,-102.872"
         style="fill:#f4dfbe;fill-opacity:1;fill-rule:nonzero;stroke:none;stroke-width:1.33333" />
    </g>
  </g>
</svg>
